<mxfile host="www.draw.io" modified="2020-01-22T08:09:45.632Z" agent="Mozilla/5.0 (Windows NT 10.0; Win64; x64) AppleWebKit/537.36 (KHTML, like Gecko) Chrome/79.0.3945.117 Safari/537.36" etag="E_SXQV6vo7dGUIospfnI" version="12.5.5" type="github">
  <diagram name="Page-1" id="74e2e168-ea6b-b213-b513-2b3c1d86103e">
    <mxGraphModel dx="1422" dy="794" grid="1" gridSize="10" guides="1" tooltips="1" connect="1" arrows="1" fold="1" page="1" pageScale="1" pageWidth="1100" pageHeight="850" background="#ffffff" math="0" shadow="0">
      <root>
        <mxCell id="0"/>
        <mxCell id="1" parent="0"/>
        <mxCell id="gDLOaXuTYHaK2b2CQ5gT-83" value="规划咨询服务" style="swimlane;html=1;startSize=20;horizontal=1;containerType=tree;" vertex="1" parent="1">
          <mxGeometry x="40" y="130" width="280" height="950" as="geometry"/>
        </mxCell>
        <mxCell id="gDLOaXuTYHaK2b2CQ5gT-109" value="" style="edgeStyle=orthogonalEdgeStyle;rounded=0;orthogonalLoop=1;jettySize=auto;html=1;" edge="1" parent="gDLOaXuTYHaK2b2CQ5gT-83" source="gDLOaXuTYHaK2b2CQ5gT-86" target="gDLOaXuTYHaK2b2CQ5gT-108">
          <mxGeometry relative="1" as="geometry"/>
        </mxCell>
        <UserObject label="窗口接件" treeRoot="1" id="gDLOaXuTYHaK2b2CQ5gT-86">
          <mxCell style="whiteSpace=wrap;html=1;align=center;treeFolding=1;treeMoving=1;container=1;recursiveResize=0;" vertex="1" parent="gDLOaXuTYHaK2b2CQ5gT-83">
            <mxGeometry x="80" y="40" width="120" height="40" as="geometry"/>
          </mxCell>
        </UserObject>
        <UserObject label="工规处处长分卷" treeRoot="1" id="gDLOaXuTYHaK2b2CQ5gT-108">
          <mxCell style="whiteSpace=wrap;html=1;align=center;treeFolding=1;treeMoving=1;container=1;recursiveResize=0;" vertex="1" parent="gDLOaXuTYHaK2b2CQ5gT-83">
            <mxGeometry x="80" y="110" width="120" height="40" as="geometry"/>
          </mxCell>
        </UserObject>
        <mxCell id="gDLOaXuTYHaK2b2CQ5gT-112" value="" style="edgeStyle=orthogonalEdgeStyle;rounded=0;orthogonalLoop=1;jettySize=auto;html=1;" edge="1" target="gDLOaXuTYHaK2b2CQ5gT-113" source="gDLOaXuTYHaK2b2CQ5gT-108" parent="gDLOaXuTYHaK2b2CQ5gT-83">
          <mxGeometry relative="1" as="geometry">
            <mxPoint x="230" y="190" as="sourcePoint"/>
          </mxGeometry>
        </mxCell>
        <mxCell id="gDLOaXuTYHaK2b2CQ5gT-124" style="edgeStyle=orthogonalEdgeStyle;rounded=0;orthogonalLoop=1;jettySize=auto;html=1;exitX=0.5;exitY=1;exitDx=0;exitDy=0;entryX=0.5;entryY=0;entryDx=0;entryDy=0;" edge="1" parent="gDLOaXuTYHaK2b2CQ5gT-83" source="gDLOaXuTYHaK2b2CQ5gT-113" target="gDLOaXuTYHaK2b2CQ5gT-123">
          <mxGeometry relative="1" as="geometry">
            <Array as="points">
              <mxPoint x="210" y="460"/>
              <mxPoint x="140" y="460"/>
            </Array>
          </mxGeometry>
        </mxCell>
        <UserObject label="工规处经办人&lt;br&gt;政策性审查" treeRoot="1" id="gDLOaXuTYHaK2b2CQ5gT-113">
          <mxCell style="whiteSpace=wrap;html=1;align=center;treeFolding=1;treeMoving=1;container=1;recursiveResize=0;" vertex="1" parent="gDLOaXuTYHaK2b2CQ5gT-83">
            <mxGeometry x="150" y="200" width="120" height="40" as="geometry"/>
          </mxCell>
        </UserObject>
        <mxCell id="gDLOaXuTYHaK2b2CQ5gT-114" value="" style="edgeStyle=orthogonalEdgeStyle;rounded=0;orthogonalLoop=1;jettySize=auto;html=1;" edge="1" target="gDLOaXuTYHaK2b2CQ5gT-115" source="gDLOaXuTYHaK2b2CQ5gT-108" parent="gDLOaXuTYHaK2b2CQ5gT-83">
          <mxGeometry relative="1" as="geometry">
            <mxPoint x="230" y="300" as="sourcePoint"/>
          </mxGeometry>
        </mxCell>
        <UserObject label="中介单位&lt;br&gt;技术审查" treeRoot="1" id="gDLOaXuTYHaK2b2CQ5gT-115">
          <mxCell style="whiteSpace=wrap;html=1;align=center;treeFolding=1;treeMoving=1;container=1;recursiveResize=0;" vertex="1" parent="gDLOaXuTYHaK2b2CQ5gT-83">
            <mxGeometry x="10" y="200" width="120" height="40" as="geometry"/>
          </mxCell>
        </UserObject>
        <mxCell id="gDLOaXuTYHaK2b2CQ5gT-116" value="" style="edgeStyle=orthogonalEdgeStyle;rounded=0;orthogonalLoop=1;jettySize=auto;html=1;" edge="1" target="gDLOaXuTYHaK2b2CQ5gT-117" source="gDLOaXuTYHaK2b2CQ5gT-115" parent="gDLOaXuTYHaK2b2CQ5gT-83">
          <mxGeometry relative="1" as="geometry">
            <mxPoint x="230" y="300" as="sourcePoint"/>
          </mxGeometry>
        </mxCell>
        <UserObject label="经办" treeRoot="1" id="gDLOaXuTYHaK2b2CQ5gT-117">
          <mxCell style="whiteSpace=wrap;html=1;align=center;treeFolding=1;treeMoving=1;container=1;recursiveResize=0;" vertex="1" parent="gDLOaXuTYHaK2b2CQ5gT-83">
            <mxGeometry x="10" y="270" width="120" height="30" as="geometry"/>
          </mxCell>
        </UserObject>
        <mxCell id="gDLOaXuTYHaK2b2CQ5gT-118" value="" style="edgeStyle=orthogonalEdgeStyle;rounded=0;orthogonalLoop=1;jettySize=auto;html=1;" edge="1" target="gDLOaXuTYHaK2b2CQ5gT-119" source="gDLOaXuTYHaK2b2CQ5gT-117" parent="gDLOaXuTYHaK2b2CQ5gT-83">
          <mxGeometry relative="1" as="geometry">
            <mxPoint x="160" y="410" as="sourcePoint"/>
          </mxGeometry>
        </mxCell>
        <UserObject label="复核" treeRoot="1" id="gDLOaXuTYHaK2b2CQ5gT-119">
          <mxCell style="whiteSpace=wrap;html=1;align=center;treeFolding=1;treeMoving=1;container=1;recursiveResize=0;" vertex="1" parent="gDLOaXuTYHaK2b2CQ5gT-83">
            <mxGeometry x="10" y="330" width="120" height="40" as="geometry"/>
          </mxCell>
        </UserObject>
        <mxCell id="gDLOaXuTYHaK2b2CQ5gT-120" value="" style="edgeStyle=orthogonalEdgeStyle;rounded=0;orthogonalLoop=1;jettySize=auto;html=1;" edge="1" target="gDLOaXuTYHaK2b2CQ5gT-121" source="gDLOaXuTYHaK2b2CQ5gT-119" parent="gDLOaXuTYHaK2b2CQ5gT-83">
          <mxGeometry relative="1" as="geometry">
            <mxPoint x="160" y="510" as="sourcePoint"/>
          </mxGeometry>
        </mxCell>
        <UserObject label="审核" treeRoot="1" id="gDLOaXuTYHaK2b2CQ5gT-121">
          <mxCell style="whiteSpace=wrap;html=1;align=center;treeFolding=1;treeMoving=1;container=1;recursiveResize=0;" vertex="1" parent="gDLOaXuTYHaK2b2CQ5gT-83">
            <mxGeometry x="10" y="400" width="120" height="40" as="geometry"/>
          </mxCell>
        </UserObject>
        <mxCell id="gDLOaXuTYHaK2b2CQ5gT-122" value="" style="edgeStyle=orthogonalEdgeStyle;rounded=0;orthogonalLoop=1;jettySize=auto;html=1;" edge="1" target="gDLOaXuTYHaK2b2CQ5gT-123" source="gDLOaXuTYHaK2b2CQ5gT-121" parent="gDLOaXuTYHaK2b2CQ5gT-83">
          <mxGeometry relative="1" as="geometry">
            <mxPoint x="150" y="500" as="sourcePoint"/>
          </mxGeometry>
        </mxCell>
        <UserObject label="工规处处审" treeRoot="1" id="gDLOaXuTYHaK2b2CQ5gT-123">
          <mxCell style="whiteSpace=wrap;html=1;align=center;treeFolding=1;treeMoving=1;container=1;recursiveResize=0;" vertex="1" parent="gDLOaXuTYHaK2b2CQ5gT-83">
            <mxGeometry x="80" y="480" width="120" height="40" as="geometry"/>
          </mxCell>
        </UserObject>
        <mxCell id="gDLOaXuTYHaK2b2CQ5gT-125" value="" style="edgeStyle=orthogonalEdgeStyle;rounded=0;orthogonalLoop=1;jettySize=auto;html=1;" edge="1" target="gDLOaXuTYHaK2b2CQ5gT-126" source="gDLOaXuTYHaK2b2CQ5gT-123" parent="gDLOaXuTYHaK2b2CQ5gT-83">
          <mxGeometry relative="1" as="geometry">
            <mxPoint x="150" y="570" as="sourcePoint"/>
          </mxGeometry>
        </mxCell>
        <UserObject label="国土规划局局审" treeRoot="1" id="gDLOaXuTYHaK2b2CQ5gT-126">
          <mxCell style="whiteSpace=wrap;html=1;align=center;treeFolding=1;treeMoving=1;container=1;recursiveResize=0;" vertex="1" parent="gDLOaXuTYHaK2b2CQ5gT-83">
            <mxGeometry x="80" y="560" width="120" height="40" as="geometry"/>
          </mxCell>
        </UserObject>
        <mxCell id="gDLOaXuTYHaK2b2CQ5gT-127" value="" style="edgeStyle=orthogonalEdgeStyle;rounded=0;orthogonalLoop=1;jettySize=auto;html=1;" edge="1" target="gDLOaXuTYHaK2b2CQ5gT-128" source="gDLOaXuTYHaK2b2CQ5gT-126" parent="gDLOaXuTYHaK2b2CQ5gT-83">
          <mxGeometry relative="1" as="geometry">
            <mxPoint x="220" y="650" as="sourcePoint"/>
          </mxGeometry>
        </mxCell>
        <UserObject label="经办人整理" treeRoot="1" id="gDLOaXuTYHaK2b2CQ5gT-128">
          <mxCell style="whiteSpace=wrap;html=1;align=center;treeFolding=1;treeMoving=1;container=1;recursiveResize=0;" vertex="1" parent="gDLOaXuTYHaK2b2CQ5gT-83">
            <mxGeometry x="80" y="640" width="120" height="40" as="geometry"/>
          </mxCell>
        </UserObject>
        <mxCell id="gDLOaXuTYHaK2b2CQ5gT-129" value="" style="edgeStyle=orthogonalEdgeStyle;rounded=0;orthogonalLoop=1;jettySize=auto;html=1;" edge="1" target="gDLOaXuTYHaK2b2CQ5gT-130" source="gDLOaXuTYHaK2b2CQ5gT-128" parent="gDLOaXuTYHaK2b2CQ5gT-83">
          <mxGeometry relative="1" as="geometry">
            <mxPoint x="220" y="730" as="sourcePoint"/>
          </mxGeometry>
        </mxCell>
        <UserObject label="出窗" treeRoot="1" id="gDLOaXuTYHaK2b2CQ5gT-130">
          <mxCell style="whiteSpace=wrap;html=1;align=center;treeFolding=1;treeMoving=1;container=1;recursiveResize=0;" vertex="1" parent="gDLOaXuTYHaK2b2CQ5gT-83">
            <mxGeometry x="80" y="720" width="120" height="40" as="geometry"/>
          </mxCell>
        </UserObject>
        <mxCell id="gDLOaXuTYHaK2b2CQ5gT-158" value="" style="edgeStyle=orthogonalEdgeStyle;rounded=0;orthogonalLoop=1;jettySize=auto;html=1;" edge="1" target="gDLOaXuTYHaK2b2CQ5gT-159" source="gDLOaXuTYHaK2b2CQ5gT-130" parent="gDLOaXuTYHaK2b2CQ5gT-83">
          <mxGeometry relative="1" as="geometry">
            <mxPoint x="220" y="810" as="sourcePoint"/>
          </mxGeometry>
        </mxCell>
        <UserObject label="扫描" treeRoot="1" id="gDLOaXuTYHaK2b2CQ5gT-159">
          <mxCell style="whiteSpace=wrap;html=1;align=center;treeFolding=1;treeMoving=1;container=1;recursiveResize=0;" vertex="1" parent="gDLOaXuTYHaK2b2CQ5gT-83">
            <mxGeometry x="80" y="800" width="120" height="40" as="geometry"/>
          </mxCell>
        </UserObject>
        <mxCell id="gDLOaXuTYHaK2b2CQ5gT-186" value="" style="edgeStyle=orthogonalEdgeStyle;rounded=0;orthogonalLoop=1;jettySize=auto;html=1;" edge="1" target="gDLOaXuTYHaK2b2CQ5gT-187" source="gDLOaXuTYHaK2b2CQ5gT-159" parent="gDLOaXuTYHaK2b2CQ5gT-83">
          <mxGeometry relative="1" as="geometry">
            <mxPoint x="220" y="890" as="sourcePoint"/>
          </mxGeometry>
        </mxCell>
        <UserObject label="结束" treeRoot="1" id="gDLOaXuTYHaK2b2CQ5gT-187">
          <mxCell style="whiteSpace=wrap;html=1;align=center;treeFolding=1;treeMoving=1;container=1;recursiveResize=0;" vertex="1" parent="gDLOaXuTYHaK2b2CQ5gT-83">
            <mxGeometry x="80" y="880" width="120" height="40" as="geometry"/>
          </mxCell>
        </UserObject>
        <mxCell id="gDLOaXuTYHaK2b2CQ5gT-131" value="规划方案审查" style="swimlane;html=1;startSize=20;horizontal=1;containerType=tree;" vertex="1" parent="1">
          <mxGeometry x="460" y="130" width="550" height="1110" as="geometry"/>
        </mxCell>
        <mxCell id="gDLOaXuTYHaK2b2CQ5gT-132" value="" style="edgeStyle=orthogonalEdgeStyle;rounded=0;orthogonalLoop=1;jettySize=auto;html=1;" edge="1" parent="gDLOaXuTYHaK2b2CQ5gT-131" source="gDLOaXuTYHaK2b2CQ5gT-133" target="gDLOaXuTYHaK2b2CQ5gT-134">
          <mxGeometry relative="1" as="geometry"/>
        </mxCell>
        <UserObject label="窗口接件" treeRoot="1" id="gDLOaXuTYHaK2b2CQ5gT-133">
          <mxCell style="whiteSpace=wrap;html=1;align=center;treeFolding=1;treeMoving=1;container=1;recursiveResize=0;" vertex="1" parent="gDLOaXuTYHaK2b2CQ5gT-131">
            <mxGeometry x="215" y="40" width="120" height="40" as="geometry"/>
          </mxCell>
        </UserObject>
        <UserObject label="工规处处长分卷" treeRoot="1" id="gDLOaXuTYHaK2b2CQ5gT-134">
          <mxCell style="whiteSpace=wrap;html=1;align=center;treeFolding=1;treeMoving=1;container=1;recursiveResize=0;" vertex="1" parent="gDLOaXuTYHaK2b2CQ5gT-131">
            <mxGeometry x="215" y="110" width="120" height="40" as="geometry"/>
          </mxCell>
        </UserObject>
        <mxCell id="gDLOaXuTYHaK2b2CQ5gT-135" value="" style="edgeStyle=orthogonalEdgeStyle;rounded=0;orthogonalLoop=1;jettySize=auto;html=1;entryX=0.5;entryY=0;entryDx=0;entryDy=0;" edge="1" parent="gDLOaXuTYHaK2b2CQ5gT-131" source="gDLOaXuTYHaK2b2CQ5gT-134" target="gDLOaXuTYHaK2b2CQ5gT-137">
          <mxGeometry relative="1" as="geometry">
            <mxPoint x="230" y="190" as="sourcePoint"/>
            <Array as="points">
              <mxPoint x="275" y="180"/>
              <mxPoint x="210" y="180"/>
            </Array>
          </mxGeometry>
        </mxCell>
        <mxCell id="gDLOaXuTYHaK2b2CQ5gT-136" style="edgeStyle=orthogonalEdgeStyle;rounded=0;orthogonalLoop=1;jettySize=auto;html=1;exitX=0.5;exitY=1;exitDx=0;exitDy=0;entryX=0.5;entryY=0;entryDx=0;entryDy=0;" edge="1" parent="gDLOaXuTYHaK2b2CQ5gT-131" source="gDLOaXuTYHaK2b2CQ5gT-137" target="gDLOaXuTYHaK2b2CQ5gT-147">
          <mxGeometry relative="1" as="geometry">
            <Array as="points">
              <mxPoint x="210" y="460"/>
              <mxPoint x="275" y="460"/>
            </Array>
          </mxGeometry>
        </mxCell>
        <UserObject label="工规处经办人&lt;br&gt;政策性审查" treeRoot="1" id="gDLOaXuTYHaK2b2CQ5gT-137">
          <mxCell style="whiteSpace=wrap;html=1;align=center;treeFolding=1;treeMoving=1;container=1;recursiveResize=0;" vertex="1" parent="gDLOaXuTYHaK2b2CQ5gT-131">
            <mxGeometry x="150" y="200" width="120" height="40" as="geometry"/>
          </mxCell>
        </UserObject>
        <mxCell id="gDLOaXuTYHaK2b2CQ5gT-138" value="" style="edgeStyle=orthogonalEdgeStyle;rounded=0;orthogonalLoop=1;jettySize=auto;html=1;" edge="1" parent="gDLOaXuTYHaK2b2CQ5gT-131" source="gDLOaXuTYHaK2b2CQ5gT-134" target="gDLOaXuTYHaK2b2CQ5gT-139">
          <mxGeometry relative="1" as="geometry">
            <mxPoint x="230" y="300" as="sourcePoint"/>
            <Array as="points">
              <mxPoint x="275" y="180"/>
              <mxPoint x="70" y="180"/>
            </Array>
          </mxGeometry>
        </mxCell>
        <UserObject label="中介单位&lt;br&gt;技术审查" treeRoot="1" id="gDLOaXuTYHaK2b2CQ5gT-139">
          <mxCell style="whiteSpace=wrap;html=1;align=center;treeFolding=1;treeMoving=1;container=1;recursiveResize=0;" vertex="1" parent="gDLOaXuTYHaK2b2CQ5gT-131">
            <mxGeometry x="10" y="200" width="120" height="40" as="geometry"/>
          </mxCell>
        </UserObject>
        <mxCell id="gDLOaXuTYHaK2b2CQ5gT-140" value="" style="edgeStyle=orthogonalEdgeStyle;rounded=0;orthogonalLoop=1;jettySize=auto;html=1;" edge="1" parent="gDLOaXuTYHaK2b2CQ5gT-131" source="gDLOaXuTYHaK2b2CQ5gT-139" target="gDLOaXuTYHaK2b2CQ5gT-141">
          <mxGeometry relative="1" as="geometry">
            <mxPoint x="230" y="300" as="sourcePoint"/>
          </mxGeometry>
        </mxCell>
        <UserObject label="经办" treeRoot="1" id="gDLOaXuTYHaK2b2CQ5gT-141">
          <mxCell style="whiteSpace=wrap;html=1;align=center;treeFolding=1;treeMoving=1;container=1;recursiveResize=0;" vertex="1" parent="gDLOaXuTYHaK2b2CQ5gT-131">
            <mxGeometry x="10" y="270" width="120" height="30" as="geometry"/>
          </mxCell>
        </UserObject>
        <mxCell id="gDLOaXuTYHaK2b2CQ5gT-142" value="" style="edgeStyle=orthogonalEdgeStyle;rounded=0;orthogonalLoop=1;jettySize=auto;html=1;" edge="1" parent="gDLOaXuTYHaK2b2CQ5gT-131" source="gDLOaXuTYHaK2b2CQ5gT-141" target="gDLOaXuTYHaK2b2CQ5gT-143">
          <mxGeometry relative="1" as="geometry">
            <mxPoint x="160" y="410" as="sourcePoint"/>
          </mxGeometry>
        </mxCell>
        <UserObject label="复核" treeRoot="1" id="gDLOaXuTYHaK2b2CQ5gT-143">
          <mxCell style="whiteSpace=wrap;html=1;align=center;treeFolding=1;treeMoving=1;container=1;recursiveResize=0;" vertex="1" parent="gDLOaXuTYHaK2b2CQ5gT-131">
            <mxGeometry x="10" y="330" width="120" height="30" as="geometry"/>
          </mxCell>
        </UserObject>
        <mxCell id="gDLOaXuTYHaK2b2CQ5gT-144" value="" style="edgeStyle=orthogonalEdgeStyle;rounded=0;orthogonalLoop=1;jettySize=auto;html=1;" edge="1" parent="gDLOaXuTYHaK2b2CQ5gT-131" source="gDLOaXuTYHaK2b2CQ5gT-143" target="gDLOaXuTYHaK2b2CQ5gT-145">
          <mxGeometry relative="1" as="geometry">
            <mxPoint x="160" y="510" as="sourcePoint"/>
          </mxGeometry>
        </mxCell>
        <UserObject label="审核" treeRoot="1" id="gDLOaXuTYHaK2b2CQ5gT-145">
          <mxCell style="whiteSpace=wrap;html=1;align=center;treeFolding=1;treeMoving=1;container=1;recursiveResize=0;" vertex="1" parent="gDLOaXuTYHaK2b2CQ5gT-131">
            <mxGeometry x="10" y="400" width="120" height="30" as="geometry"/>
          </mxCell>
        </UserObject>
        <mxCell id="gDLOaXuTYHaK2b2CQ5gT-146" value="" style="edgeStyle=orthogonalEdgeStyle;rounded=0;orthogonalLoop=1;jettySize=auto;html=1;exitX=0.5;exitY=1;exitDx=0;exitDy=0;" edge="1" parent="gDLOaXuTYHaK2b2CQ5gT-131" source="gDLOaXuTYHaK2b2CQ5gT-145" target="gDLOaXuTYHaK2b2CQ5gT-147">
          <mxGeometry relative="1" as="geometry">
            <mxPoint x="150" y="500" as="sourcePoint"/>
          </mxGeometry>
        </mxCell>
        <UserObject label="工规处处审" treeRoot="1" id="gDLOaXuTYHaK2b2CQ5gT-147">
          <mxCell style="whiteSpace=wrap;html=1;align=center;treeFolding=1;treeMoving=1;container=1;recursiveResize=0;" vertex="1" parent="gDLOaXuTYHaK2b2CQ5gT-131">
            <mxGeometry x="215" y="490" width="120" height="40" as="geometry"/>
          </mxCell>
        </UserObject>
        <mxCell id="gDLOaXuTYHaK2b2CQ5gT-148" value="" style="edgeStyle=orthogonalEdgeStyle;rounded=0;orthogonalLoop=1;jettySize=auto;html=1;" edge="1" parent="gDLOaXuTYHaK2b2CQ5gT-131" source="gDLOaXuTYHaK2b2CQ5gT-147" target="gDLOaXuTYHaK2b2CQ5gT-149">
          <mxGeometry relative="1" as="geometry">
            <mxPoint x="150" y="570" as="sourcePoint"/>
          </mxGeometry>
        </mxCell>
        <UserObject label="国土规划局局审" treeRoot="1" id="gDLOaXuTYHaK2b2CQ5gT-149">
          <mxCell style="whiteSpace=wrap;html=1;align=center;treeFolding=1;treeMoving=1;container=1;recursiveResize=0;" vertex="1" parent="gDLOaXuTYHaK2b2CQ5gT-131">
            <mxGeometry x="215" y="570" width="120" height="40" as="geometry"/>
          </mxCell>
        </UserObject>
        <mxCell id="gDLOaXuTYHaK2b2CQ5gT-150" value="" style="edgeStyle=orthogonalEdgeStyle;rounded=0;orthogonalLoop=1;jettySize=auto;html=1;" edge="1" parent="gDLOaXuTYHaK2b2CQ5gT-131" source="gDLOaXuTYHaK2b2CQ5gT-149" target="gDLOaXuTYHaK2b2CQ5gT-151">
          <mxGeometry relative="1" as="geometry">
            <mxPoint x="220" y="650" as="sourcePoint"/>
          </mxGeometry>
        </mxCell>
        <UserObject label="经办人整理" treeRoot="1" id="gDLOaXuTYHaK2b2CQ5gT-151">
          <mxCell style="whiteSpace=wrap;html=1;align=center;treeFolding=1;treeMoving=1;container=1;recursiveResize=0;" vertex="1" parent="gDLOaXuTYHaK2b2CQ5gT-131">
            <mxGeometry x="215" y="650" width="120" height="40" as="geometry"/>
          </mxCell>
        </UserObject>
        <mxCell id="gDLOaXuTYHaK2b2CQ5gT-152" value="" style="edgeStyle=orthogonalEdgeStyle;rounded=0;orthogonalLoop=1;jettySize=auto;html=1;" edge="1" parent="gDLOaXuTYHaK2b2CQ5gT-131" source="gDLOaXuTYHaK2b2CQ5gT-151" target="gDLOaXuTYHaK2b2CQ5gT-153">
          <mxGeometry relative="1" as="geometry">
            <mxPoint x="220" y="730" as="sourcePoint"/>
          </mxGeometry>
        </mxCell>
        <UserObject label="出窗" treeRoot="1" id="gDLOaXuTYHaK2b2CQ5gT-153">
          <mxCell style="whiteSpace=wrap;html=1;align=center;treeFolding=1;treeMoving=1;container=1;recursiveResize=0;" vertex="1" parent="gDLOaXuTYHaK2b2CQ5gT-131">
            <mxGeometry x="150" y="730" width="120" height="40" as="geometry"/>
          </mxCell>
        </UserObject>
        <mxCell id="gDLOaXuTYHaK2b2CQ5gT-155" value="" style="edgeStyle=orthogonalEdgeStyle;rounded=0;orthogonalLoop=1;jettySize=auto;html=1;" edge="1" target="gDLOaXuTYHaK2b2CQ5gT-156" source="gDLOaXuTYHaK2b2CQ5gT-134" parent="gDLOaXuTYHaK2b2CQ5gT-131">
          <mxGeometry relative="1" as="geometry">
            <mxPoint x="580" y="280" as="sourcePoint"/>
            <Array as="points">
              <mxPoint x="275" y="180"/>
              <mxPoint x="340" y="180"/>
            </Array>
          </mxGeometry>
        </mxCell>
        <UserObject label="信息中心图面&lt;br&gt;深度审查" treeRoot="1" id="gDLOaXuTYHaK2b2CQ5gT-156">
          <mxCell style="whiteSpace=wrap;html=1;align=center;treeFolding=1;treeMoving=1;container=1;recursiveResize=0;" vertex="1" parent="gDLOaXuTYHaK2b2CQ5gT-131">
            <mxGeometry x="280" y="200" width="120" height="40" as="geometry"/>
          </mxCell>
        </UserObject>
        <mxCell id="gDLOaXuTYHaK2b2CQ5gT-198" value="" style="edgeStyle=orthogonalEdgeStyle;rounded=0;orthogonalLoop=1;jettySize=auto;html=1;" edge="1" target="gDLOaXuTYHaK2b2CQ5gT-199" source="gDLOaXuTYHaK2b2CQ5gT-134" parent="gDLOaXuTYHaK2b2CQ5gT-131">
          <mxGeometry relative="1" as="geometry">
            <mxPoint x="650" y="280" as="sourcePoint"/>
            <Array as="points">
              <mxPoint x="275" y="180"/>
              <mxPoint x="470" y="180"/>
            </Array>
          </mxGeometry>
        </mxCell>
        <UserObject label="长勘院放线&lt;br&gt;图纸预审" treeRoot="1" id="gDLOaXuTYHaK2b2CQ5gT-199">
          <mxCell style="whiteSpace=wrap;html=1;align=center;treeFolding=1;treeMoving=1;container=1;recursiveResize=0;" vertex="1" parent="gDLOaXuTYHaK2b2CQ5gT-131">
            <mxGeometry x="410" y="200" width="120" height="40" as="geometry"/>
          </mxCell>
        </UserObject>
        <mxCell id="gDLOaXuTYHaK2b2CQ5gT-200" value="" style="edgeStyle=orthogonalEdgeStyle;rounded=0;orthogonalLoop=1;jettySize=auto;html=1;entryX=0.5;entryY=0;entryDx=0;entryDy=0;" edge="1" target="gDLOaXuTYHaK2b2CQ5gT-201" source="gDLOaXuTYHaK2b2CQ5gT-156" parent="gDLOaXuTYHaK2b2CQ5gT-131">
          <mxGeometry relative="1" as="geometry">
            <mxPoint x="714.8620689655172" y="280" as="sourcePoint"/>
            <Array as="points">
              <mxPoint x="340" y="260"/>
              <mxPoint x="340" y="260"/>
            </Array>
          </mxGeometry>
        </mxCell>
        <UserObject label="经办" treeRoot="1" id="gDLOaXuTYHaK2b2CQ5gT-201">
          <mxCell style="whiteSpace=wrap;html=1;align=center;treeFolding=1;treeMoving=1;container=1;recursiveResize=0;" vertex="1" parent="gDLOaXuTYHaK2b2CQ5gT-131">
            <mxGeometry x="280" y="270" width="120" height="30" as="geometry"/>
          </mxCell>
        </UserObject>
        <mxCell id="gDLOaXuTYHaK2b2CQ5gT-204" value="" style="edgeStyle=orthogonalEdgeStyle;rounded=0;orthogonalLoop=1;jettySize=auto;html=1;entryX=0.5;entryY=0;entryDx=0;entryDy=0;exitX=0.5;exitY=1;exitDx=0;exitDy=0;" edge="1" target="gDLOaXuTYHaK2b2CQ5gT-205" source="gDLOaXuTYHaK2b2CQ5gT-201" parent="gDLOaXuTYHaK2b2CQ5gT-131">
          <mxGeometry relative="1" as="geometry">
            <mxPoint x="779.689655172414" y="370" as="sourcePoint"/>
            <Array as="points">
              <mxPoint x="340" y="320"/>
              <mxPoint x="340" y="320"/>
            </Array>
          </mxGeometry>
        </mxCell>
        <UserObject label="复核" treeRoot="1" id="gDLOaXuTYHaK2b2CQ5gT-205">
          <mxCell style="whiteSpace=wrap;html=1;align=center;treeFolding=1;treeMoving=1;container=1;recursiveResize=0;" vertex="1" parent="gDLOaXuTYHaK2b2CQ5gT-131">
            <mxGeometry x="280" y="330" width="120" height="30" as="geometry"/>
          </mxCell>
        </UserObject>
        <mxCell id="gDLOaXuTYHaK2b2CQ5gT-209" value="" style="edgeStyle=orthogonalEdgeStyle;rounded=0;orthogonalLoop=1;jettySize=auto;html=1;entryX=0.5;entryY=0;entryDx=0;entryDy=0;exitX=0.5;exitY=1;exitDx=0;exitDy=0;" edge="1" target="gDLOaXuTYHaK2b2CQ5gT-210" source="gDLOaXuTYHaK2b2CQ5gT-205" parent="gDLOaXuTYHaK2b2CQ5gT-131">
          <mxGeometry relative="1" as="geometry">
            <mxPoint x="779.689655172414" y="440.2758620689656" as="sourcePoint"/>
            <Array as="points">
              <mxPoint x="340" y="400"/>
              <mxPoint x="340" y="400"/>
            </Array>
          </mxGeometry>
        </mxCell>
        <mxCell id="gDLOaXuTYHaK2b2CQ5gT-211" style="edgeStyle=orthogonalEdgeStyle;rounded=0;orthogonalLoop=1;jettySize=auto;html=1;exitX=0.5;exitY=1;exitDx=0;exitDy=0;entryX=0.5;entryY=0;entryDx=0;entryDy=0;" edge="1" parent="gDLOaXuTYHaK2b2CQ5gT-131" source="gDLOaXuTYHaK2b2CQ5gT-210" target="gDLOaXuTYHaK2b2CQ5gT-147">
          <mxGeometry relative="1" as="geometry"/>
        </mxCell>
        <UserObject label="复核" treeRoot="1" id="gDLOaXuTYHaK2b2CQ5gT-210">
          <mxCell style="whiteSpace=wrap;html=1;align=center;treeFolding=1;treeMoving=1;container=1;recursiveResize=0;" vertex="1" parent="gDLOaXuTYHaK2b2CQ5gT-131">
            <mxGeometry x="280" y="400" width="120" height="30" as="geometry"/>
          </mxCell>
        </UserObject>
        <mxCell id="gDLOaXuTYHaK2b2CQ5gT-213" value="" style="edgeStyle=orthogonalEdgeStyle;rounded=0;orthogonalLoop=1;jettySize=auto;html=1;entryX=0.5;entryY=0;entryDx=0;entryDy=0;" edge="1" target="gDLOaXuTYHaK2b2CQ5gT-214" source="gDLOaXuTYHaK2b2CQ5gT-199" parent="gDLOaXuTYHaK2b2CQ5gT-131">
          <mxGeometry relative="1" as="geometry">
            <mxPoint x="715" y="260" as="sourcePoint"/>
            <Array as="points">
              <mxPoint x="470" y="260"/>
              <mxPoint x="470" y="260"/>
            </Array>
          </mxGeometry>
        </mxCell>
        <UserObject label="长勘院窗口" treeRoot="1" id="gDLOaXuTYHaK2b2CQ5gT-214">
          <mxCell style="whiteSpace=wrap;html=1;align=center;treeFolding=1;treeMoving=1;container=1;recursiveResize=0;" vertex="1" parent="gDLOaXuTYHaK2b2CQ5gT-131">
            <mxGeometry x="410" y="270" width="120" height="30" as="geometry"/>
          </mxCell>
        </UserObject>
        <mxCell id="gDLOaXuTYHaK2b2CQ5gT-215" value="" style="edgeStyle=orthogonalEdgeStyle;rounded=0;orthogonalLoop=1;jettySize=auto;html=1;entryX=0.5;entryY=0;entryDx=0;entryDy=0;" edge="1" target="gDLOaXuTYHaK2b2CQ5gT-216" source="gDLOaXuTYHaK2b2CQ5gT-214" parent="gDLOaXuTYHaK2b2CQ5gT-131">
          <mxGeometry relative="1" as="geometry">
            <mxPoint x="910" y="350" as="sourcePoint"/>
            <Array as="points">
              <mxPoint x="470" y="320"/>
              <mxPoint x="470" y="320"/>
            </Array>
          </mxGeometry>
        </mxCell>
        <mxCell id="gDLOaXuTYHaK2b2CQ5gT-217" style="edgeStyle=orthogonalEdgeStyle;rounded=0;orthogonalLoop=1;jettySize=auto;html=1;exitX=0.5;exitY=1;exitDx=0;exitDy=0;entryX=0.5;entryY=0;entryDx=0;entryDy=0;" edge="1" parent="gDLOaXuTYHaK2b2CQ5gT-131" source="gDLOaXuTYHaK2b2CQ5gT-216" target="gDLOaXuTYHaK2b2CQ5gT-147">
          <mxGeometry relative="1" as="geometry">
            <Array as="points">
              <mxPoint x="470" y="460"/>
              <mxPoint x="275" y="460"/>
            </Array>
          </mxGeometry>
        </mxCell>
        <UserObject label="长勘院窗口" treeRoot="1" id="gDLOaXuTYHaK2b2CQ5gT-216">
          <mxCell style="whiteSpace=wrap;html=1;align=center;treeFolding=1;treeMoving=1;container=1;recursiveResize=0;" vertex="1" parent="gDLOaXuTYHaK2b2CQ5gT-131">
            <mxGeometry x="410" y="330" width="120" height="30" as="geometry"/>
          </mxCell>
        </UserObject>
        <mxCell id="gDLOaXuTYHaK2b2CQ5gT-218" value="" style="edgeStyle=orthogonalEdgeStyle;rounded=0;orthogonalLoop=1;jettySize=auto;html=1;" edge="1" target="gDLOaXuTYHaK2b2CQ5gT-219" source="gDLOaXuTYHaK2b2CQ5gT-151" parent="gDLOaXuTYHaK2b2CQ5gT-131">
          <mxGeometry relative="1" as="geometry">
            <mxPoint x="715" y="770" as="sourcePoint"/>
            <Array as="points">
              <mxPoint x="275" y="710"/>
              <mxPoint x="70" y="710"/>
            </Array>
          </mxGeometry>
        </mxCell>
        <mxCell id="gDLOaXuTYHaK2b2CQ5gT-236" style="edgeStyle=orthogonalEdgeStyle;rounded=0;orthogonalLoop=1;jettySize=auto;html=1;exitX=0.5;exitY=1;exitDx=0;exitDy=0;entryX=0.5;entryY=0;entryDx=0;entryDy=0;" edge="1" parent="gDLOaXuTYHaK2b2CQ5gT-131" source="gDLOaXuTYHaK2b2CQ5gT-219" target="gDLOaXuTYHaK2b2CQ5gT-235">
          <mxGeometry relative="1" as="geometry">
            <Array as="points">
              <mxPoint x="70" y="950"/>
              <mxPoint x="275" y="950"/>
            </Array>
          </mxGeometry>
        </mxCell>
        <UserObject label="信息中心核面" treeRoot="1" id="gDLOaXuTYHaK2b2CQ5gT-219">
          <mxCell style="whiteSpace=wrap;html=1;align=center;treeFolding=1;treeMoving=1;container=1;recursiveResize=0;" vertex="1" parent="gDLOaXuTYHaK2b2CQ5gT-131">
            <mxGeometry x="10" y="730" width="120" height="40" as="geometry"/>
          </mxCell>
        </UserObject>
        <mxCell id="gDLOaXuTYHaK2b2CQ5gT-222" value="" style="edgeStyle=orthogonalEdgeStyle;rounded=0;orthogonalLoop=1;jettySize=auto;html=1;" edge="1" target="gDLOaXuTYHaK2b2CQ5gT-223" source="gDLOaXuTYHaK2b2CQ5gT-151" parent="gDLOaXuTYHaK2b2CQ5gT-131">
          <mxGeometry relative="1" as="geometry">
            <mxPoint x="715" y="770" as="sourcePoint"/>
          </mxGeometry>
        </mxCell>
        <UserObject label="长勘院放线" treeRoot="1" id="gDLOaXuTYHaK2b2CQ5gT-223">
          <mxCell style="whiteSpace=wrap;html=1;align=center;treeFolding=1;treeMoving=1;container=1;recursiveResize=0;" vertex="1" parent="gDLOaXuTYHaK2b2CQ5gT-131">
            <mxGeometry x="280" y="730" width="120" height="40" as="geometry"/>
          </mxCell>
        </UserObject>
        <mxCell id="gDLOaXuTYHaK2b2CQ5gT-226" value="" style="edgeStyle=orthogonalEdgeStyle;rounded=0;orthogonalLoop=1;jettySize=auto;html=1;" edge="1" target="gDLOaXuTYHaK2b2CQ5gT-227" source="gDLOaXuTYHaK2b2CQ5gT-151" parent="gDLOaXuTYHaK2b2CQ5gT-131">
          <mxGeometry relative="1" as="geometry">
            <mxPoint x="715" y="770" as="sourcePoint"/>
            <Array as="points">
              <mxPoint x="275" y="710"/>
              <mxPoint x="470" y="710"/>
            </Array>
          </mxGeometry>
        </mxCell>
        <mxCell id="gDLOaXuTYHaK2b2CQ5gT-238" style="edgeStyle=orthogonalEdgeStyle;rounded=0;orthogonalLoop=1;jettySize=auto;html=1;exitX=0.5;exitY=1;exitDx=0;exitDy=0;entryX=0.5;entryY=0;entryDx=0;entryDy=0;" edge="1" parent="gDLOaXuTYHaK2b2CQ5gT-131" source="gDLOaXuTYHaK2b2CQ5gT-227" target="gDLOaXuTYHaK2b2CQ5gT-235">
          <mxGeometry relative="1" as="geometry">
            <Array as="points">
              <mxPoint x="470" y="950"/>
              <mxPoint x="275" y="950"/>
            </Array>
          </mxGeometry>
        </mxCell>
        <UserObject label="加盖电子印章" treeRoot="1" id="gDLOaXuTYHaK2b2CQ5gT-227">
          <mxCell style="whiteSpace=wrap;html=1;align=center;treeFolding=1;treeMoving=1;container=1;recursiveResize=0;" vertex="1" parent="gDLOaXuTYHaK2b2CQ5gT-131">
            <mxGeometry x="410" y="730" width="120" height="40" as="geometry"/>
          </mxCell>
        </UserObject>
        <mxCell id="gDLOaXuTYHaK2b2CQ5gT-228" value="" style="edgeStyle=orthogonalEdgeStyle;rounded=0;orthogonalLoop=1;jettySize=auto;html=1;" edge="1" target="gDLOaXuTYHaK2b2CQ5gT-229" source="gDLOaXuTYHaK2b2CQ5gT-153" parent="gDLOaXuTYHaK2b2CQ5gT-131">
          <mxGeometry relative="1" as="geometry">
            <mxPoint x="715" y="820" as="sourcePoint"/>
          </mxGeometry>
        </mxCell>
        <UserObject label="扫描" treeRoot="1" id="gDLOaXuTYHaK2b2CQ5gT-229">
          <mxCell style="whiteSpace=wrap;html=1;align=center;treeFolding=1;treeMoving=1;container=1;recursiveResize=0;" vertex="1" parent="gDLOaXuTYHaK2b2CQ5gT-131">
            <mxGeometry x="150" y="810" width="120" height="40" as="geometry"/>
          </mxCell>
        </UserObject>
        <mxCell id="gDLOaXuTYHaK2b2CQ5gT-230" value="" style="edgeStyle=orthogonalEdgeStyle;rounded=0;orthogonalLoop=1;jettySize=auto;html=1;" edge="1" target="gDLOaXuTYHaK2b2CQ5gT-231" source="gDLOaXuTYHaK2b2CQ5gT-229" parent="gDLOaXuTYHaK2b2CQ5gT-131">
          <mxGeometry relative="1" as="geometry">
            <mxPoint x="650" y="900" as="sourcePoint"/>
          </mxGeometry>
        </mxCell>
        <UserObject label="批后公布" treeRoot="1" id="gDLOaXuTYHaK2b2CQ5gT-231">
          <mxCell style="whiteSpace=wrap;html=1;align=center;treeFolding=1;treeMoving=1;container=1;recursiveResize=0;" vertex="1" parent="gDLOaXuTYHaK2b2CQ5gT-131">
            <mxGeometry x="150" y="890" width="120" height="40" as="geometry"/>
          </mxCell>
        </UserObject>
        <mxCell id="gDLOaXuTYHaK2b2CQ5gT-232" value="" style="edgeStyle=orthogonalEdgeStyle;rounded=0;orthogonalLoop=1;jettySize=auto;html=1;" edge="1" target="gDLOaXuTYHaK2b2CQ5gT-233" source="gDLOaXuTYHaK2b2CQ5gT-223" parent="gDLOaXuTYHaK2b2CQ5gT-131">
          <mxGeometry relative="1" as="geometry">
            <mxPoint x="715" y="820" as="sourcePoint"/>
          </mxGeometry>
        </mxCell>
        <mxCell id="gDLOaXuTYHaK2b2CQ5gT-237" style="edgeStyle=orthogonalEdgeStyle;rounded=0;orthogonalLoop=1;jettySize=auto;html=1;exitX=0.5;exitY=1;exitDx=0;exitDy=0;entryX=0.5;entryY=0;entryDx=0;entryDy=0;" edge="1" parent="gDLOaXuTYHaK2b2CQ5gT-131" source="gDLOaXuTYHaK2b2CQ5gT-233" target="gDLOaXuTYHaK2b2CQ5gT-235">
          <mxGeometry relative="1" as="geometry">
            <Array as="points">
              <mxPoint x="340" y="950"/>
              <mxPoint x="275" y="950"/>
            </Array>
          </mxGeometry>
        </mxCell>
        <UserObject label="长勘院放线窗口" treeRoot="1" id="gDLOaXuTYHaK2b2CQ5gT-233">
          <mxCell style="whiteSpace=wrap;html=1;align=center;treeFolding=1;treeMoving=1;container=1;recursiveResize=0;" vertex="1" parent="gDLOaXuTYHaK2b2CQ5gT-131">
            <mxGeometry x="280" y="810" width="120" height="40" as="geometry"/>
          </mxCell>
        </UserObject>
        <mxCell id="gDLOaXuTYHaK2b2CQ5gT-234" value="" style="edgeStyle=orthogonalEdgeStyle;rounded=0;orthogonalLoop=1;jettySize=auto;html=1;" edge="1" target="gDLOaXuTYHaK2b2CQ5gT-235" source="gDLOaXuTYHaK2b2CQ5gT-231" parent="gDLOaXuTYHaK2b2CQ5gT-131">
          <mxGeometry relative="1" as="geometry">
            <mxPoint x="650" y="980" as="sourcePoint"/>
          </mxGeometry>
        </mxCell>
        <UserObject label="经办人意见汇总" treeRoot="1" id="gDLOaXuTYHaK2b2CQ5gT-235">
          <mxCell style="whiteSpace=wrap;html=1;align=center;treeFolding=1;treeMoving=1;container=1;recursiveResize=0;" vertex="1" parent="gDLOaXuTYHaK2b2CQ5gT-131">
            <mxGeometry x="215" y="970" width="120" height="40" as="geometry"/>
          </mxCell>
        </UserObject>
        <mxCell id="gDLOaXuTYHaK2b2CQ5gT-239" value="" style="edgeStyle=orthogonalEdgeStyle;rounded=0;orthogonalLoop=1;jettySize=auto;html=1;" edge="1" target="gDLOaXuTYHaK2b2CQ5gT-240" source="gDLOaXuTYHaK2b2CQ5gT-235" parent="gDLOaXuTYHaK2b2CQ5gT-131">
          <mxGeometry relative="1" as="geometry">
            <mxPoint x="650" y="1060" as="sourcePoint"/>
          </mxGeometry>
        </mxCell>
        <UserObject label="结束" treeRoot="1" id="gDLOaXuTYHaK2b2CQ5gT-240">
          <mxCell style="whiteSpace=wrap;html=1;align=center;treeFolding=1;treeMoving=1;container=1;recursiveResize=0;" vertex="1" parent="gDLOaXuTYHaK2b2CQ5gT-131">
            <mxGeometry x="215" y="1050" width="120" height="40" as="geometry"/>
          </mxCell>
        </UserObject>
        <mxCell id="gDLOaXuTYHaK2b2CQ5gT-241" value="工规证审批" style="swimlane;html=1;startSize=20;horizontal=1;containerType=tree;" vertex="1" parent="1">
          <mxGeometry x="1150" y="130" width="280" height="730" as="geometry"/>
        </mxCell>
        <mxCell id="gDLOaXuTYHaK2b2CQ5gT-242" value="" style="edgeStyle=orthogonalEdgeStyle;rounded=0;orthogonalLoop=1;jettySize=auto;html=1;" edge="1" parent="gDLOaXuTYHaK2b2CQ5gT-241" source="gDLOaXuTYHaK2b2CQ5gT-243" target="gDLOaXuTYHaK2b2CQ5gT-244">
          <mxGeometry relative="1" as="geometry"/>
        </mxCell>
        <UserObject label="窗口接件" treeRoot="1" id="gDLOaXuTYHaK2b2CQ5gT-243">
          <mxCell style="whiteSpace=wrap;html=1;align=center;treeFolding=1;treeMoving=1;container=1;recursiveResize=0;" vertex="1" parent="gDLOaXuTYHaK2b2CQ5gT-241">
            <mxGeometry x="80" y="40" width="120" height="40" as="geometry"/>
          </mxCell>
        </UserObject>
        <UserObject label="工规处处长分卷" treeRoot="1" id="gDLOaXuTYHaK2b2CQ5gT-244">
          <mxCell style="whiteSpace=wrap;html=1;align=center;treeFolding=1;treeMoving=1;container=1;recursiveResize=0;" vertex="1" parent="gDLOaXuTYHaK2b2CQ5gT-241">
            <mxGeometry x="80" y="110" width="120" height="40" as="geometry"/>
          </mxCell>
        </UserObject>
        <mxCell id="gDLOaXuTYHaK2b2CQ5gT-245" value="" style="edgeStyle=orthogonalEdgeStyle;rounded=0;orthogonalLoop=1;jettySize=auto;html=1;" edge="1" parent="gDLOaXuTYHaK2b2CQ5gT-241" source="gDLOaXuTYHaK2b2CQ5gT-244" target="gDLOaXuTYHaK2b2CQ5gT-247">
          <mxGeometry relative="1" as="geometry">
            <mxPoint x="230" y="190" as="sourcePoint"/>
          </mxGeometry>
        </mxCell>
        <UserObject label="工规处经办人&lt;br&gt;政策性审查" treeRoot="1" id="gDLOaXuTYHaK2b2CQ5gT-247">
          <mxCell style="whiteSpace=wrap;html=1;align=center;treeFolding=1;treeMoving=1;container=1;recursiveResize=0;" vertex="1" parent="gDLOaXuTYHaK2b2CQ5gT-241">
            <mxGeometry x="150" y="200" width="120" height="40" as="geometry"/>
          </mxCell>
        </UserObject>
        <mxCell id="gDLOaXuTYHaK2b2CQ5gT-248" value="" style="edgeStyle=orthogonalEdgeStyle;rounded=0;orthogonalLoop=1;jettySize=auto;html=1;" edge="1" parent="gDLOaXuTYHaK2b2CQ5gT-241" source="gDLOaXuTYHaK2b2CQ5gT-244" target="gDLOaXuTYHaK2b2CQ5gT-249">
          <mxGeometry relative="1" as="geometry">
            <mxPoint x="230" y="300" as="sourcePoint"/>
          </mxGeometry>
        </mxCell>
        <UserObject label="中介单位&lt;br&gt;技术审查" treeRoot="1" id="gDLOaXuTYHaK2b2CQ5gT-249">
          <mxCell style="whiteSpace=wrap;html=1;align=center;treeFolding=1;treeMoving=1;container=1;recursiveResize=0;" vertex="1" parent="gDLOaXuTYHaK2b2CQ5gT-241">
            <mxGeometry x="10" y="200" width="120" height="40" as="geometry"/>
          </mxCell>
        </UserObject>
        <mxCell id="gDLOaXuTYHaK2b2CQ5gT-250" value="" style="edgeStyle=orthogonalEdgeStyle;rounded=0;orthogonalLoop=1;jettySize=auto;html=1;" edge="1" parent="gDLOaXuTYHaK2b2CQ5gT-241" source="gDLOaXuTYHaK2b2CQ5gT-249" target="gDLOaXuTYHaK2b2CQ5gT-251">
          <mxGeometry relative="1" as="geometry">
            <mxPoint x="230" y="300" as="sourcePoint"/>
          </mxGeometry>
        </mxCell>
        <mxCell id="gDLOaXuTYHaK2b2CQ5gT-272" style="edgeStyle=orthogonalEdgeStyle;rounded=0;orthogonalLoop=1;jettySize=auto;html=1;exitX=0.5;exitY=1;exitDx=0;exitDy=0;entryX=0.5;entryY=0;entryDx=0;entryDy=0;" edge="1" parent="gDLOaXuTYHaK2b2CQ5gT-241" source="gDLOaXuTYHaK2b2CQ5gT-251" target="gDLOaXuTYHaK2b2CQ5gT-271">
          <mxGeometry relative="1" as="geometry"/>
        </mxCell>
        <UserObject label="中介机构经办" treeRoot="1" id="gDLOaXuTYHaK2b2CQ5gT-251">
          <mxCell style="whiteSpace=wrap;html=1;align=center;treeFolding=1;treeMoving=1;container=1;recursiveResize=0;" vertex="1" parent="gDLOaXuTYHaK2b2CQ5gT-241">
            <mxGeometry x="10" y="270" width="120" height="40" as="geometry"/>
          </mxCell>
        </UserObject>
        <mxCell id="gDLOaXuTYHaK2b2CQ5gT-268" value="" style="edgeStyle=orthogonalEdgeStyle;rounded=0;orthogonalLoop=1;jettySize=auto;html=1;" edge="1" target="gDLOaXuTYHaK2b2CQ5gT-269" source="gDLOaXuTYHaK2b2CQ5gT-247" parent="gDLOaXuTYHaK2b2CQ5gT-241">
          <mxGeometry relative="1" as="geometry">
            <mxPoint x="1200" y="280" as="sourcePoint"/>
          </mxGeometry>
        </mxCell>
        <UserObject label="工规处处审" treeRoot="1" id="gDLOaXuTYHaK2b2CQ5gT-269">
          <mxCell style="whiteSpace=wrap;html=1;align=center;treeFolding=1;treeMoving=1;container=1;recursiveResize=0;" vertex="1" parent="gDLOaXuTYHaK2b2CQ5gT-241">
            <mxGeometry x="150" y="270" width="120" height="40" as="geometry"/>
          </mxCell>
        </UserObject>
        <mxCell id="gDLOaXuTYHaK2b2CQ5gT-270" value="" style="edgeStyle=orthogonalEdgeStyle;rounded=0;orthogonalLoop=1;jettySize=auto;html=1;" edge="1" target="gDLOaXuTYHaK2b2CQ5gT-271" source="gDLOaXuTYHaK2b2CQ5gT-269" parent="gDLOaXuTYHaK2b2CQ5gT-241">
          <mxGeometry relative="1" as="geometry">
            <mxPoint x="1270" y="370" as="sourcePoint"/>
          </mxGeometry>
        </mxCell>
        <UserObject label="工规处经办人整理" treeRoot="1" id="gDLOaXuTYHaK2b2CQ5gT-271">
          <mxCell style="whiteSpace=wrap;html=1;align=center;treeFolding=1;treeMoving=1;container=1;recursiveResize=0;" vertex="1" parent="gDLOaXuTYHaK2b2CQ5gT-241">
            <mxGeometry x="80" y="350" width="120" height="40" as="geometry"/>
          </mxCell>
        </UserObject>
        <mxCell id="gDLOaXuTYHaK2b2CQ5gT-273" value="" style="edgeStyle=orthogonalEdgeStyle;rounded=0;orthogonalLoop=1;jettySize=auto;html=1;" edge="1" target="gDLOaXuTYHaK2b2CQ5gT-274" source="gDLOaXuTYHaK2b2CQ5gT-271" parent="gDLOaXuTYHaK2b2CQ5gT-241">
          <mxGeometry relative="1" as="geometry">
            <mxPoint x="1280" y="440" as="sourcePoint"/>
          </mxGeometry>
        </mxCell>
        <UserObject label="行政审批出意见" treeRoot="1" id="gDLOaXuTYHaK2b2CQ5gT-274">
          <mxCell style="whiteSpace=wrap;html=1;align=center;treeFolding=1;treeMoving=1;container=1;recursiveResize=0;" vertex="1" parent="gDLOaXuTYHaK2b2CQ5gT-241">
            <mxGeometry x="80" y="430" width="120" height="40" as="geometry"/>
          </mxCell>
        </UserObject>
        <mxCell id="gDLOaXuTYHaK2b2CQ5gT-275" value="" style="edgeStyle=orthogonalEdgeStyle;rounded=0;orthogonalLoop=1;jettySize=auto;html=1;" edge="1" target="gDLOaXuTYHaK2b2CQ5gT-276" source="gDLOaXuTYHaK2b2CQ5gT-274" parent="gDLOaXuTYHaK2b2CQ5gT-241">
          <mxGeometry relative="1" as="geometry">
            <mxPoint x="1210" y="520" as="sourcePoint"/>
          </mxGeometry>
        </mxCell>
        <UserObject label="出窗" treeRoot="1" id="gDLOaXuTYHaK2b2CQ5gT-276">
          <mxCell style="whiteSpace=wrap;html=1;align=center;treeFolding=1;treeMoving=1;container=1;recursiveResize=0;" vertex="1" parent="gDLOaXuTYHaK2b2CQ5gT-241">
            <mxGeometry x="80" y="510" width="120" height="40" as="geometry"/>
          </mxCell>
        </UserObject>
        <mxCell id="gDLOaXuTYHaK2b2CQ5gT-277" value="" style="edgeStyle=orthogonalEdgeStyle;rounded=0;orthogonalLoop=1;jettySize=auto;html=1;" edge="1" target="gDLOaXuTYHaK2b2CQ5gT-278" source="gDLOaXuTYHaK2b2CQ5gT-276" parent="gDLOaXuTYHaK2b2CQ5gT-241">
          <mxGeometry relative="1" as="geometry">
            <mxPoint x="1210" y="600" as="sourcePoint"/>
          </mxGeometry>
        </mxCell>
        <UserObject label="扫描" treeRoot="1" id="gDLOaXuTYHaK2b2CQ5gT-278">
          <mxCell style="whiteSpace=wrap;html=1;align=center;treeFolding=1;treeMoving=1;container=1;recursiveResize=0;" vertex="1" parent="gDLOaXuTYHaK2b2CQ5gT-241">
            <mxGeometry x="80" y="590" width="120" height="40" as="geometry"/>
          </mxCell>
        </UserObject>
        <mxCell id="gDLOaXuTYHaK2b2CQ5gT-279" value="" style="edgeStyle=orthogonalEdgeStyle;rounded=0;orthogonalLoop=1;jettySize=auto;html=1;" edge="1" target="gDLOaXuTYHaK2b2CQ5gT-280" source="gDLOaXuTYHaK2b2CQ5gT-278" parent="gDLOaXuTYHaK2b2CQ5gT-241">
          <mxGeometry relative="1" as="geometry">
            <mxPoint x="1210" y="680" as="sourcePoint"/>
          </mxGeometry>
        </mxCell>
        <UserObject label="结束" treeRoot="1" id="gDLOaXuTYHaK2b2CQ5gT-280">
          <mxCell style="whiteSpace=wrap;html=1;align=center;treeFolding=1;treeMoving=1;container=1;recursiveResize=0;" vertex="1" parent="gDLOaXuTYHaK2b2CQ5gT-241">
            <mxGeometry x="80" y="670" width="120" height="40" as="geometry"/>
          </mxCell>
        </UserObject>
      </root>
    </mxGraphModel>
  </diagram>
</mxfile>
